<svg xmlns="http://www.w3.org/2000/svg" viewBox="0 0 512 512"><path d="M501.23 106.623H266.24l-30.986-58.259a10.771 10.771 0 00-9.509-5.714H10.77C4.823 42.65 0 47.473 0 53.42v405.16c0 5.946 4.823 10.77 10.77 10.77h490.46c5.947 0 10.77-4.824 10.77-10.77V117.393c0-5.947-4.823-10.77-10.77-10.77zM21.54 447.811V64.191h197.734l30.986 58.26a10.771 10.771 0 009.509 5.712h230.69V447.81H21.54z"/><path d="M163.34 106.842h.255c5.948 0 10.77-4.822 10.77-10.77 0-5.947-4.822-10.77-10.77-10.77h-.255c-5.947 0-10.77 4.823-10.77 10.77 0 5.949 4.823 10.77 10.77 10.77zM132.711 85.299H53.417c-5.947 0-10.77 4.823-10.77 10.77 0 5.948 4.823 10.77 10.77 10.77h79.294c5.947 0 10.77-4.822 10.77-10.77 0-5.947-4.823-10.77-10.77-10.77zM358.173 202.366c-32.76-8.975-67.102-23.54-96.698-41.013a10.772 10.772 0 00-10.951 0c-30.889 18.236-62.52 31.651-96.697 41.013a10.77 10.77 0 00-7.925 10.388v52.666c0 56.184 25.936 93.39 47.693 114.708 25.059 24.552 52.051 35.989 62.405 35.989s37.347-11.437 62.405-35.989c21.756-21.318 47.693-58.524 47.693-114.708v-52.666a10.774 10.774 0 00-7.925-10.388zm-13.615 63.054c0 48.076-21.891 80.024-40.255 98.359-21.746 21.712-43.863 30.273-48.303 30.787-4.44-.514-26.557-9.075-48.303-30.787-18.364-18.335-40.255-50.283-40.255-98.359v-44.532c31.039-9.147 60.141-21.571 88.562-37.809 27.799 15.83 58.146 28.782 88.555 37.802v44.539z"/><path d="M210.851 280.607c-4.207-4.206-11.024-4.206-15.232 0-4.206 4.206-4.206 11.025 0 15.231l35.021 35.021c2.103 2.103 4.859 3.155 7.615 3.155s5.512-1.051 7.615-3.155l70.513-70.512c4.206-4.206 4.206-11.025 0-15.232-4.206-4.206-11.023-4.205-15.232 0l-62.897 62.897-27.403-27.405zM380.647 405.166h-.256c-5.947 0-10.77 4.822-10.77 10.77 0 5.947 4.823 10.77 10.77 10.77h.256c5.947 0 10.77-4.824 10.77-10.77 0-5.948-4.823-10.77-10.77-10.77zM458.579 405.164h-47.302c-5.948 0-10.77 4.822-10.77 10.77 0 5.947 4.823 10.77 10.77 10.77h47.302c5.947 0 10.77-4.823 10.77-10.77 0-5.948-4.823-10.77-10.77-10.77z"/></svg>