<?xml version="1.0" encoding="utf-8"?>
<!-- Generator: Adobe Illustrator 17.0.0, SVG Export Plug-In . SVG Version: 6.00 Build 0)  -->
<!DOCTYPE svg PUBLIC "-//W3C//DTD SVG 1.1//EN" "http://www.w3.org/Graphics/SVG/1.1/DTD/svg11.dtd">
<svg version="1.1" id="Layer_1" xmlns="http://www.w3.org/2000/svg" xmlns:xlink="http://www.w3.org/1999/xlink" x="0px" y="0px"
	 width="300px" height="300px" viewBox="0 0 300 300" enable-background="new 0 0 300 300" xml:space="preserve">
<g>
	<path fill="#00749A" d="M135.407,211.367h-15.194v1.613c4.752,0,5.516,1.018,5.516,7.046v10.864c0,6.026-0.763,7.13-5.516,7.13
		c-3.649-0.509-6.111-2.462-9.506-6.196l-3.905-4.243c5.263-0.935,8.064-4.245,8.064-7.981c0-4.667-3.989-8.232-11.459-8.232H88.469
		v1.613c4.752,0,5.516,1.018,5.516,7.046v10.864c0,6.026-0.763,7.13-5.516,7.13v1.611h16.891v-1.611
		c-4.754,0-5.517-1.104-5.517-7.13v-3.055h1.443l9.422,11.797h24.7c12.138,0,17.4-6.45,17.4-14.174
		C152.807,217.733,147.546,211.367,135.407,211.367z M99.843,225.202v-11.288h3.48c3.819,0,5.517,2.631,5.517,5.685
		c0,2.972-1.699,5.603-5.517,5.603H99.843z M135.662,237h-0.595c-3.055,0-3.48-0.763-3.48-4.668v-18.418c0,0,3.734,0,4.075,0
		c8.827,0,10.44,6.45,10.44,11.458C146.101,230.549,144.489,237,135.662,237z"/>
	<path fill="#00749A" d="M41.193,228.343l5.856-17.317c1.699-5.007,0.935-6.45-4.498-6.45v-1.698h15.958v1.698
		c-5.347,0-6.62,1.273-8.743,7.469l-9.677,29.029h-1.102l-8.658-26.568l-8.827,26.568h-1.104l-9.421-29.029
		c-2.037-6.196-3.396-7.469-8.319-7.469v-1.698h18.844v1.698c-5.008,0-6.366,1.188-4.584,6.45l5.686,17.317l8.573-25.465h1.614
		L41.193,228.343z"/>
	<path fill="#00749A" d="M70.05,240.734c-9.336,0-16.976-6.874-16.976-15.278c0-8.318,7.64-15.194,16.976-15.194
		c9.337,0,16.976,6.876,16.976,15.194C87.027,233.86,79.387,240.734,70.05,240.734z M70.05,212.895
		c-7.808,0-10.525,7.044-10.525,12.562c0,5.603,2.717,12.563,10.525,12.563c7.894,0,10.61-6.96,10.61-12.563
		C80.66,219.939,77.944,212.895,70.05,212.895z"/>
	<path fill="#464342" d="M173.771,237.934v1.697h-19.437v-1.697c5.687,0,6.705-1.443,6.705-9.931v-13.58
		c0-8.49-1.018-9.846-6.705-9.846v-1.698h17.57c8.743,0,13.581,4.499,13.581,10.527c0,5.856-4.838,10.44-13.581,10.44h-4.838v4.158
		C167.065,236.491,168.083,237.934,173.771,237.934z M171.904,205.934h-4.838v14.769h4.838c4.754,0,6.96-3.31,6.96-7.297
		C178.864,209.331,176.657,205.934,171.904,205.934z"/>
	<path fill="#464342" d="M243.794,231.653l-0.423,1.528c-0.764,2.801-1.699,3.819-7.725,3.819h-1.188
		c-4.413,0-5.177-1.018-5.177-7.044v-3.905c6.62,0,7.13,0.593,7.13,5.008h1.613v-12.647h-1.613c0,4.414-0.51,5.007-7.13,5.007
		v-9.505h4.668c6.026,0,6.96,1.018,7.723,3.819l0.425,1.611h1.358l-0.593-7.978h-24.956v1.613c4.754,0,5.517,1.018,5.517,7.046
		v10.864c0,5.513-0.649,6.901-4.396,7.1c-3.562-0.545-6.008-2.488-9.353-6.166l-3.905-4.243c5.263-0.935,8.065-4.245,8.065-7.981
		c0-4.667-3.989-8.232-11.459-8.232h-14.939v1.613c4.754,0,5.517,1.018,5.517,7.046v10.864c0,6.026-0.764,7.13-5.517,7.13v1.611
		h16.891v-1.611c-4.752,0-5.516-1.104-5.516-7.13v-3.055h1.443l9.42,11.797h34.885l0.509-7.978H243.794z M198.811,225.202v-11.288
		h3.48c3.819,0,5.517,2.631,5.517,5.685c0,2.972-1.699,5.603-5.517,5.603H198.811z"/>
	<path fill="#464342" d="M261.025,240.734c-3.396,0-6.367-1.781-7.639-2.885c-0.425,0.425-1.188,1.697-1.358,2.885h-1.613v-11.712
		h1.697c0.679,5.602,4.584,8.911,9.592,8.911c2.715,0,4.923-1.527,4.923-4.073c0-2.207-1.953-3.905-5.432-5.517l-4.838-2.292
		c-3.396-1.614-5.942-4.413-5.942-8.148c0-4.075,3.819-7.555,9.083-7.555c2.801,0,5.176,1.018,6.62,2.207
		c0.425-0.34,0.848-1.275,1.104-2.293h1.613v10.017h-1.783c-0.595-3.99-2.801-7.3-7.299-7.3c-2.378,0-4.585,1.358-4.585,3.48
		c0,2.207,1.783,3.394,5.858,5.263l4.668,2.292c4.075,1.952,5.687,5.093,5.687,7.639C271.381,237,266.711,240.734,261.025,240.734z"
		/>
	<path fill="#464342" d="M287.168,240.734c-3.396,0-6.368-1.781-7.64-2.885c-0.425,0.425-1.188,1.697-1.357,2.885h-1.614v-11.712
		h1.698c0.679,5.602,4.582,8.911,9.591,8.911c2.717,0,4.924-1.527,4.924-4.073c0-2.207-1.953-3.905-5.433-5.517l-4.838-2.292
		c-3.396-1.614-5.942-4.413-5.942-8.148c0-4.075,3.82-7.555,9.083-7.555c2.801,0,5.177,1.018,6.621,2.207
		c0.423-0.34,0.848-1.275,1.102-2.293h1.613v10.017h-1.783c-0.593-3.99-2.801-7.3-7.299-7.3c-2.376,0-4.584,1.358-4.584,3.48
		c0,2.207,1.781,3.394,5.857,5.263l4.667,2.292c4.075,1.952,5.687,5.093,5.687,7.639C297.522,237,292.854,240.734,287.168,240.734z"
		/>
	<g>
		<path fill="#464342" d="M94.96,121.997c0,21.706,12.614,40.465,30.907,49.355L99.709,99.68
			C96.667,106.499,94.96,114.047,94.96,121.997z"/>
		<path fill="#464342" d="M186.819,119.23c0-6.778-2.435-11.471-4.522-15.123c-2.779-4.517-5.386-8.343-5.386-12.86
			c0-5.041,3.823-9.734,9.209-9.734c0.243,0,0.473,0.031,0.711,0.044c-9.756-8.939-22.754-14.397-37.031-14.397
			c-19.158,0-36.012,9.83-45.819,24.717c1.288,0.039,2.501,0.066,3.53,0.066c5.735,0,14.615-0.697,14.615-0.697
			c2.956-0.174,3.305,4.168,0.351,4.517c0,0-2.972,0.35-6.276,0.523l19.97,59.401l12.002-35.993l-8.545-23.408
			c-2.952-0.174-5.751-0.523-5.751-0.523c-2.955-0.173-2.609-4.691,0.347-4.517c0,0,9.055,0.697,14.444,0.697
			c5.735,0,14.615-0.697,14.615-0.697c2.958-0.174,3.305,4.168,0.352,4.517c0,0-2.977,0.35-6.277,0.523l19.817,58.949l5.47-18.277
			C185.014,129.371,186.819,123.925,186.819,119.23z"/>
		<path fill="#464342" d="M150.762,126.794l-16.454,47.811c4.912,1.444,10.108,2.233,15.491,2.233c6.385,0,12.51-1.104,18.21-3.108
			c-0.147-0.234-0.28-0.483-0.39-0.755L150.762,126.794z"/>
		<path fill="#464342" d="M197.917,95.689c0.236,1.746,0.369,3.621,0.369,5.639c0,5.563-1.039,11.819-4.169,19.641l-16.751,48.43
			c16.303-9.508,27.269-27.171,27.269-47.402C204.636,112.464,202.201,103.498,197.917,95.689z"/>
		<path fill="#464342" d="M149.799,58.074c-35.248,0-63.924,28.677-63.924,63.923c0,35.252,28.677,63.926,63.924,63.926
			c35.246,0,63.927-28.674,63.927-63.926C213.726,86.751,185.044,58.074,149.799,58.074z M149.799,182.992
			c-33.631,0-60.993-27.362-60.993-60.995c0-33.631,27.363-60.992,60.993-60.992c33.63,0,60.99,27.361,60.99,60.992
			C210.789,155.63,183.429,182.992,149.799,182.992z"/>
	</g>
</g>
</svg>
